<svg xmlns="http://www.w3.org/2000/svg" viewBox="0 0 80 64" role="img" aria-label="GEUMBIT FARM 마크">
  <title>GEUMBIT FARM mark</title>
  <defs>
    <linearGradient id="gbmGold" x1="0" y1="0" x2="1" y2="1">
      <stop offset="0%"  stop-color="#E2C07A"/>
      <stop offset="50%" stop-color="#B7894A"/>
      <stop offset="100%" stop-color="#7E5A28"/>
    </linearGradient>
    <linearGradient id="gbmGoldSoft" x1="0" y1="0" x2="1" y2="1">
      <stop offset="0%"  stop-color="#D8B373"/>
      <stop offset="100%" stop-color="#94692E"/>
    </linearGradient>
  </defs>
  <g transform="translate(40 58)">
    <path d="M -34 0 A 34 34 0 0 1 34 0 L 26 0 A 26 26 0 0 0 -26 0 Z" fill="url(#gbmGold)"/>
    <path d="M -22 0 A 22 22 0 0 1 22 0 L 14 0 A 14 14 0 0 0 -14 0 Z" fill="url(#gbmGoldSoft)"/>
    <path d="M -10 0 A 10 10 0 0 1 10 0 L 4  0 A 4  4  0 0 0 -4  0 Z" fill="#A8803C"/>
    <circle cx="0" cy="-22" r="2.4" fill="#C9A961"/>
  </g>
</svg>
